<?xml version="1.0" encoding="UTF-8" standalone="no"?>
<svg width="95px" height="86px" viewBox="0 0 95 86" version="1.1" xmlns="http://www.w3.org/2000/svg" xmlns:xlink="http://www.w3.org/1999/xlink" xmlns:sketch="http://www.bohemiancoding.com/sketch/ns">
    <!-- Generator: Sketch 3.2.2 (9983) - http://www.bohemiancoding.com/sketch -->
    <title>logo-cloudwhite-cardback</title>
    <desc>Created with Sketch.</desc>
    <defs></defs>
    <g id="Page-1" stroke="none" stroke-width="1" fill="none" fill-rule="evenodd" sketch:type="MSPage">
        <g id="Artboard" sketch:type="MSArtboardGroup" transform="translate(-195.000000, -82.000000)" fill="#FFFFFF">
            <path d="M233.923567,143.288641 C230.836192,143.775541 227.570105,143.300648 224.597127,141.719888 C217.935876,138.178037 215.054402,130.311759 217.57694,123.427183 C214.087738,118.927391 213.343874,112.624388 216.188849,107.273767 C220.056709,99.9993809 229.093321,97.2399925 236.372687,101.1105 C237.353182,101.631839 238.251785,102.246871 239.063315,102.938674 L239.063318,102.938673 C243.092482,101.18591 247.855446,101.220919 252.038216,103.444937 C257.274203,106.228961 260.174842,111.684848 259.951314,117.235645 C260.93552,117.550487 261.911946,117.960005 262.866228,118.467405 C270.263003,122.40034 273.528338,130.724759 270.159557,137.060514 C267.641914,141.795512 262.131454,144.079765 256.420184,143.290113 C254.43281,147.45107 250.749952,150.386609 246.319667,150.772814 C241.19799,151.219289 236.466285,148.137567 233.923567,143.288641 L233.923567,143.288641 Z M243.996002,130.026278 C247.973773,130.026278 250.888781,126.449452 250.888781,121.720768 C250.888781,117.113332 247.730856,113.506194 243.449438,113.506194 C241.050629,113.506194 239.289478,114.597429 238.135621,116.385842 L238.135621,113.809315 L233.884567,113.809315 L233.884567,136.17963 L238.742914,136.17963 L238.742914,127.14663 C239.744948,128.935043 241.597193,130.026278 243.996002,130.026278 Z M242.325945,125.934147 C240.838076,125.934147 239.380572,124.691352 238.742914,123.084812 L238.742914,119.811107 C239.410937,118.477375 240.746982,117.628637 242.083028,117.628637 C244.330013,117.628637 245.908976,119.356426 245.908976,121.690456 C245.908976,123.963862 244.421107,125.934147 242.325945,125.934147 Z" id="Path" sketch:type="MSShapeGroup"></path>
        </g>
    </g>
</svg>